<?xml version="1.0" encoding="UTF-8"?>
<svg id="Capa_2" data-name="Capa 2" xmlns="http://www.w3.org/2000/svg" viewBox="0 0 170.09 43.43">
  <defs>
    <style>
      .cls-1 {
        fill: #f6f6f6;
      }

      .cls-2 {
        fill: #01fbce;
      }
    </style>
  </defs>
  <g id="Main">
    <g>
      <path class="cls-1" d="M83.44,9.12c3.67,0,7.15.98,9.8,2.77l1.45.98,4.25-8.57-1.15-.74c-3.51-2.26-8.59-3.55-13.96-3.55-11.15,0-18.64,5.71-18.64,14.2s7.52,10.51,13.02,12.11c4.22,1.23,6.79,2.11,6.79,3.98,0,2.96-4.08,4.02-7.89,4.02-4.38,0-8.8-1.46-11.82-3.92l-1.44-1.16-4.5,8.34-.05.09.94.8c3.53,3.01,9.89,4.96,16.2,4.96,11.29,0,18.87-5.73,18.87-14.26,0-7.88-7.1-9.96-12.81-11.63-4.35-1.28-6.99-2.19-6.99-4.13,0-2.61,3.12-4.3,7.95-4.3Z"/>
      <polygon class="cls-1" points="160.03 0 144.42 29.22 140.66 0 131.93 0 116.31 28.95 112.55 0 102.75 0 108.46 43.43 118.25 43.43 133.48 15.53 137.28 43.43 147.08 43.43 170.09 0 160.03 0"/>
      <path class="cls-1" d="M56.73,5.31c-2.68-3.37-6.89-5.31-11.56-5.31H11.72l5.49,9.51h27.96c1.78,0,3.19.59,4.07,1.69.94,1.18,1.2,2.88.74,4.8-1.12,4.71-6.02,8.7-10.7,8.7h-5.24l1.85-8.85h-9.55l-1.86,8.85h-7.26l-5.51,9.51h10.77l-1.93,9.21h9.58l1.92-9.21h7.23c9.07,0,17.85-7.03,20-16.01,1.13-4.74.2-9.44-2.54-12.9Z"/>
      <polygon class="cls-2" points="5.49 0 0 9.51 10.98 9.51 5.49 0"/>
    </g>
  </g>
</svg>