<?xml version="1.0" encoding="UTF-8"?>
<svg id="Capa_2" data-name="Capa 2" xmlns="http://www.w3.org/2000/svg" xmlns:xlink="http://www.w3.org/1999/xlink" viewBox="0 0 780 72.76">
  <defs>
    <style>
      .cls-1 {
        fill: #f6f6f6;
      }

      .cls-2 {
        fill: url(#Degradado_sin_nombre_14-2);
      }

      .cls-3 {
        fill: #fff;
      }

      .cls-4 {
        fill: #01fbce;
      }

      .cls-5 {
        fill: #0cf;
      }

      .cls-6 {
        fill: url(#Degradado_sin_nombre_14);
      }

      .cls-7 {
        fill: url(#Degradado_sin_nombre_14-3);
      }
    </style>
    <linearGradient id="Degradado_sin_nombre_14" data-name="Degradado sin nombre 14" x1="67.29" y1="47.37" x2="9.27" y2="47.37" gradientUnits="userSpaceOnUse">
      <stop offset="0" stop-color="#41a6f9"/>
      <stop offset="1" stop-color="#213acd"/>
    </linearGradient>
    <linearGradient id="Degradado_sin_nombre_14-2" data-name="Degradado sin nombre 14" x1="38.9" y1=".63" x2="38.9" y2="54.94" xlink:href="#Degradado_sin_nombre_14"/>
    <linearGradient id="Degradado_sin_nombre_14-3" data-name="Degradado sin nombre 14" x1="1.46" y1="34.59" x2="46.36" y2="34.59" xlink:href="#Degradado_sin_nombre_14"/>
  </defs>
  <g id="Main">
    <g>
      <g>
        <g>
          <path class="cls-5" d="M351.44,56.93c-1.69-4.54-2.54-9.44-2.54-14.72s.85-10.18,2.54-14.72,4-8.2,6.92-10.97h9.78v.96c-2.96,3.11-5.29,6.85-6.99,11.22-1.71,4.37-2.56,8.87-2.56,13.5s.85,9.18,2.56,13.55c1.71,4.37,4.04,8.11,6.99,11.22v.91h-9.78c-2.93-2.77-5.23-6.43-6.92-10.97Z"/>
          <path class="cls-5" d="M403.2,25.07v32.36h-10.15v-12.61h-9.64v12.61h-10.15V25.07h10.15v11.65h9.64v-11.65h10.15Z"/>
          <path class="cls-5" d="M430.19,57.43l-6.08-11.61h-.05v11.61h-10.15V25.07h15.08c2.62,0,4.86.46,6.72,1.39,1.86.93,3.25,2.19,4.18,3.79.93,1.6,1.39,3.4,1.39,5.42,0,2.16-.6,4.08-1.81,5.76-1.2,1.68-2.93,2.88-5.19,3.61l7.04,12.39h-11.15ZM424.06,39.06h4.02c.97,0,1.71-.22,2.19-.66.49-.44.73-1.13.73-2.08,0-.85-.25-1.52-.75-2.01s-1.23-.73-2.17-.73h-4.02v5.48Z"/>
          <path class="cls-5" d="M444.84,67.9v-.91c2.95-3.11,5.29-6.85,6.99-11.22,1.71-4.37,2.56-8.89,2.56-13.55s-.85-9.13-2.56-13.5c-1.71-4.37-4.04-8.11-6.99-11.22v-.96h9.78c2.93,2.77,5.23,6.43,6.92,10.97s2.54,9.45,2.54,14.72-.85,10.18-2.54,14.72-4,8.2-6.92,10.97h-9.78Z"/>
          <path class="cls-5" d="M485.33,39.36h-6.29l-.93,2.85h-6.21l6.9-18.86h6.82l6.87,18.86h-6.23l-.93-2.85ZM483.89,34.91l-1.71-5.25-1.71,5.25h3.41Z"/>
          <path class="cls-5" d="M502.98,23.35v18.86h-5.92v-18.86h5.92Z"/>
        </g>
        <g>
          <g>
            <g>
              <path class="cls-1" d="M326.79,37.08v21.03h-7.67s-.02-18.51-.02-18.51c0-3.14-1.23-6.6-4.74-7.08-1.82-.25-3.66.25-5.05,1.46-1.78,1.56-2.35,4.03-2.37,6.36v17.77s-7.87,0-7.87,0v-18.8c-.15-2.87-.91-5.99-4.09-6.7-1.79-.4-3.69-.06-5.21,1-1.97,1.38-2.8,3.85-2.81,6.19l-.02,15.61c0,1.42-1.12,2.67-2.52,2.67l-5.29.02v-31.71s5.74,0,5.74,0c1.03,0,1.75.98,1.69,1.95.07.42-.16.83.17,1.23,2.75-3.64,7.53-4.68,11.7-3.83,2.79.57,5.09,2.2,6.61,4.73,2.93-4.43,8.27-5.66,13.19-4.7,5.34,1.23,7.84,5.36,8.47,10.54.03.27-.11.57.08.75Z"/>
              <g>
                <path class="cls-1" d="M224.38,58.67c-3.27.71-6.56.7-9.77-.03-3.29-.74-6.23-2.45-8.4-5.02-3.63-4.3-4.44-10.28-3.53-15.68,1.2-7.06,6.2-11.99,13.3-13.03,5.68-.83,11.88.15,16.12,4.3,2.06,2.02,3.44,4.53,4.15,7.35.85,3.38.87,6.9.09,10.29-1.4,6.04-5.84,10.48-11.96,11.82ZM225.74,49.33c2.36-2.97,2.61-7.48,1.81-11.03-.72-3.21-2.9-5.9-6.29-6.42-2.92-.45-5.8.33-7.61,2.77-2.15,2.9-2.41,7.29-1.69,10.68.68,3.21,2.76,6,6.14,6.59,2.92.51,5.75-.21,7.63-2.59Z"/>
                <path class="cls-1" d="M262.84,58.66c-3.31.73-6.66.72-9.91-.03-5.97-1.37-10.27-5.78-11.63-11.74-.79-3.47-.76-7.06.13-10.5,1.5-5.81,5.77-9.91,11.62-11.2,3.24-.72,6.57-.71,9.81,0,5.81,1.28,10.16,5.32,11.71,11.09.95,3.51.98,7.21.13,10.75-1.42,5.94-5.83,10.3-11.85,11.64ZM248.51,53.91c4.13,1.32,8.31,1.19,11.95-1.11,1.64-1.03,3.03-2.31,4.19-3.86,3.08-4.15,3.22-10.3-.5-14.13-1.08-1.11-2.36-1.89-3.88-2.24-3.36-.77-6.79.61-8.71,3.46-.77,1.14-1.26,2.39-1.52,3.75-.39,2.05.05,4.07,1.19,5.8.64.98,1.43,1.76,2.3,2.53.56.49.75,1.19.4,1.87-1.14,2.21-3.08,3.36-5.42,3.94Z"/>
              </g>
            </g>
            <g>
              <path class="cls-1" d="M113.39,40.98c-1.63.36-3.15.54-4.79.54h-10.63s0,12.87,0,12.87c0,1.85-1.44,3.26-3.27,3.26h-4.72s0-40.95,0-40.95c0-2.74,2.16-5.01,4.91-5.01h13.99c1.87,0,3.62.27,5.4.72,4.9,1.26,8.74,4.64,9.89,9.67.68,2.97.64,6.04-.1,9.01-1.32,5.23-5.45,8.72-10.67,9.89ZM116.25,28.73c.37-1.58.36-3.1.03-4.62-.46-2.13-1.89-3.74-3.9-4.55-1.44-.58-2.94-.89-4.53-.9l-8.07-.04c-.94.08-1.81.78-1.81,1.79l-.02,14.26,9.62-.02c3.85,0,7.74-1.83,8.68-5.91Z"/>
              <g>
                <path class="cls-1" d="M140.04,72.76h-6.36l6.54-16.65-11.96-30.19,6.68-.02c1.11-.03,1.97.55,2.44,1.56l7.03,18,7.13-17.74c.39-1.09,1.3-1.72,2.46-1.82l7.15.02-18.07,44.29c-.49,1.21-1.46,2.09-2.71,2.41-.14.02-.27.04-.33.14Z"/>
                <path class="cls-1" d="M199.5,58.07l-9.29.07-8.46-10.86-7.11,8.8c-.92,1.24-2.26,1.93-3.81,2.04l-7.15-.03,13-16.84-12.18-15.16,9.67-.03,7.5,9.47,5.44-7.11c1-1.44,2.54-2.28,4.31-2.35l6.9.02-11.75,15.16,12.93,16.81Z"/>
              </g>
            </g>
          </g>
          <g>
            <path class="cls-6" d="M32.31,52.99c2.47.85,5.05,1.44,7.81,1.44,6.08,0,11.64-2.24,15.91-5.92,4.81-4.16,7.97-10.16,8.38-16.91v12.26c0,5.82-3.1,11.19-8.13,14.1l-10.37,5.98-3.4,1.96s-.02,0-.02.01l-2.14,1.24c-5.04,2.9-11.24,2.9-16.28,0l-1.62-.94-4.81-2.78c-4.86-3.6-8.33-8.97-9.46-15.15-.02-.1-.03-.19-.05-.29-.23-1.33-.35-2.71-.35-4.12,0-7.36,3.27-13.95,8.43-18.42l.12-.06c-.29,1.49-.44,3.04-.44,4.61,0,10.66,6.87,19.72,16.42,22.98Z"/>
            <path class="cls-2" d="M32.3,7.03c-2.46-.84-5.1-1.3-7.85-1.3-.82,0-1.64.04-2.44.13-.25.02-.51.05-.77.08-.37.05-.73.1-1.1.17-.18.03-.35.07-.53.1-.06,0-.12.02-.18.03-.2.04-.4.09-.59.13-.2.05-.4.1-.59.15-.25.06-.51.13-.75.2-.25.07-.5.14-.74.23-.21.07-.41.14-.62.21-.28.1-.56.2-.84.31-.16.06-.32.13-.47.19-.19.08-.38.16-.56.25-.3.13-.59.27-.88.42l10.67-6.16c5.04-2.91,11.24-2.91,16.28,0l10.05,5.8-.03.02,3.7,2.14,2.19,1.26c5.05,2.92,8.16,8.3,8.16,14.13v5.99c-.41,6.73-3.57,12.72-8.36,16.87,0,.04-.02.08-.02.12-4.27,3.68-9.83,5.92-15.91,5.92-2.76,0-5.41-.46-7.89-1.31,5.74-1.96,10.51-6.02,13.42-11.25.09-.17.18-.34.28-.51.09-.18.18-.35.27-.53s.18-.37.26-.56c.12-.25.23-.51.34-.77.1-.25.21-.51.31-.76l.05-.13c1.02-2.67,1.57-5.58,1.57-8.6,0-1.5-.14-2.96-.4-4.39-.02-.02-.04-.03-.06-.06-1.63-8.66-7.85-15.7-16.04-18.51.02,0,.04-.02.07-.02t.01,0"/>
            <path class="cls-7" d="M48.27,25.56c-4.28-3.77-9.9-6.07-16.06-6.07-4.2,0-8.15,1.07-11.59,2.94-.01,0-.03.01-.04.02-.19.1-.39.21-.58.33-1.34.77-2.61,1.67-3.77,2.68-5.16,4.47-8.43,11.06-8.43,18.42,0,1.41.12,2.78.35,4.12.02.1.03.19.05.29,1.13,6.18,4.6,11.56,9.46,15.15l-9.5-5.48C3.11,55.05,0,49.68,0,43.86v-18.38c0-5.82,3.11-11.19,8.14-14.1l2.95-1.7,2.3-1.33c.29-.15.58-.29.88-.42.18-.09.37-.17.56-.25.15-.07.31-.13.47-.19.28-.11.56-.21.84-.31.2-.07.41-.14.62-.21.25-.08.5-.16.74-.23.25-.07.5-.14.75-.2.19-.05.39-.1.59-.15.19-.04.39-.09.59-.13.06-.01.12-.03.18-.03.18-.03.35-.07.53-.1.36-.07.73-.12,1.1-.17.25-.03.51-.06.77-.08.77-.07,1.55-.11,2.34-.11,2.76,0,5.41.46,7.89,1.31,8.19,2.8,14.4,9.85,16.04,18.51Z"/>
          </g>
        </g>
      </g>
      <g>
        <path class="cls-3" d="M540.83,28.64c1.41-.69,2.95-1.04,4.62-1.04,2.59,0,4.69.84,6.29,2.53s2.4,3.98,2.4,6.89c0,.92-.09,1.9-.26,2.94-.43,2.48-1.28,4.66-2.55,6.55-1.27,1.89-2.79,3.34-4.58,4.36-1.79,1.02-3.67,1.53-5.66,1.53-1.7,0-3.13-.34-4.28-1.02-1.15-.68-1.99-1.58-2.51-2.7l-.61,3.37h-7.39l5.66-31.97h7.39l-2.03,11.28c.92-1.12,2.09-2.03,3.5-2.72ZM546.53,38.62c0-1.44-.41-2.56-1.23-3.37-.82-.81-1.87-1.21-3.13-1.21-1.47,0-2.81.53-4.02,1.6-1.21,1.07-1.99,2.52-2.33,4.36-.09.52-.13.99-.13,1.43,0,1.41.4,2.52,1.21,3.33.81.81,1.84,1.21,3.11,1.21,1.47,0,2.82-.54,4.04-1.62,1.22-1.08,2.01-2.54,2.35-4.39.09-.49.13-.94.13-1.34Z"/>
        <path class="cls-3" d="M564.33,27.95l2.94,15.08,8.21-15.08h7.99l-21.39,35.56h-7.95l7.69-12.27-5.7-23.29h8.21Z"/>
      </g>
      <g>
        <path class="cls-1" d="M693.34,29.2c3.67,0,7.15.98,9.8,2.77l1.45.98,4.25-8.57-1.15-.74c-3.51-2.26-8.59-3.55-13.96-3.55-11.15,0-18.64,5.71-18.64,14.2s7.52,10.51,13.02,12.11c4.22,1.23,6.79,2.11,6.79,3.98,0,2.96-4.08,4.02-7.89,4.02-4.38,0-8.8-1.46-11.82-3.92l-1.44-1.16-4.5,8.34-.05.09.94.8c3.53,3.01,9.89,4.96,16.2,4.96,11.29,0,18.87-5.73,18.87-14.26,0-7.88-7.1-9.96-12.81-11.63-4.35-1.28-6.99-2.19-6.99-4.13,0-2.61,3.12-4.3,7.95-4.3Z"/>
        <polygon class="cls-1" points="769.94 20.08 754.32 49.3 750.57 20.08 741.83 20.08 726.21 49.03 722.46 20.08 712.66 20.08 718.37 63.51 728.16 63.51 743.38 35.61 747.19 63.51 756.98 63.51 780 20.08 769.94 20.08"/>
        <path class="cls-1" d="M666.63,25.39c-2.68-3.37-6.89-5.31-11.56-5.31h-33.45l5.49,9.51h27.96c1.78,0,3.19.59,4.07,1.69.94,1.18,1.2,2.88.74,4.8-1.12,4.71-6.02,8.7-10.7,8.7h-5.24l1.85-8.85h-9.55l-1.86,8.85h-7.26l-5.51,9.51h10.77l-1.93,9.21h9.58l1.92-9.21h7.23c9.07,0,17.85-7.03,20-16.01,1.13-4.74.2-9.44-2.54-12.9Z"/>
        <polygon class="cls-4" points="615.4 20.08 609.91 29.59 620.89 29.59 615.4 20.08"/>
      </g>
    </g>
  </g>
</svg>